<svg t="1663578582483" class="icon" viewBox="0 0 1024 1024" version="1.1" xmlns="http://www.w3.org/2000/svg" p-id="22" width="22" height="40"><path d="M922.88 735.456c-13.184 0-24.672 6.624-31.296 16.544-28.384 38.464-70.624 71.168-127.008 98.144-57.088 27.296-127.872 40.96-212.384 40.96-79.008 0-151.04-13.12-216-39.36-65.024-26.208-114.688-66.816-149.024-121.76s-51.52-120.448-51.52-196.512c0-72.64 17.184-140.704 51.52-204.224 34.336-63.488 82.72-112.224 145.152-146.24 62.4-33.984 131.328-50.976 206.784-50.976 66.112 0 126.56 13.504 181.216 40.512 54.688 27.008 95.808 63.04 123.36 108.032a273.248 273.248 0 0 1 41.376 145.28c0 44.448-10.752 87.488-32.192 129.28-21.44 41.728-50.56 75.008-87.328 99.84-27.744 18.944-50.144 28.416-67.264 28.416a34.24 34.24 0 0 1-23.936-9.056 28.448 28.448 0 0 1-9.92-21.696c0-4.672 4.832-28.704 14.496-72.16l65.824-295.2h-0.128c0.608-2.752 0.96-5.6 0.96-8.512 0-22.4-18.88-40.576-42.176-40.576-20.16 0-36.96 13.664-41.12 31.872l-0.288-0.064-16.448 72.16c-18.368-28.864-40.32-50.336-65.792-64.48a163.264 163.264 0 0 0-80.32-21.184c-36.768 0-74.688 12.416-113.664 37.248-39.04 24.832-71.68 62.016-98.016 111.52-26.24 49.536-39.424 98.976-39.424 148.352 0 40 8.48 76.8 25.408 110.336 16.96 33.536 38.976 58.4 66.048 74.56 27.072 16.128 54.976 24.192 83.712 24.192 26.112 0 52.16-7.04 78.08-21.184a264.32 264.32 0 0 0 70.432-56.128c1.92 18.944 5.024 32.32 9.216 40.032 6.432 12.16 16.512 21.44 30.208 27.936 13.696 6.528 31.68 9.792 53.952 9.792 69.664 0 133.856-31.36 192.544-94.08 65.824-69.824 98.688-149.76 98.688-239.808 0-63.04-15.648-121.408-46.912-175.104-36.8-62.4-87.008-109.376-150.72-140.896C695.296 79.776 623.456 64 543.424 64c-103.2 0-191.008 22.4-263.424 67.072-72.416 44.704-128.32 109.12-167.616 193.28A502.944 502.944 0 0 0 64 540.896c0 67.968 13.536 131.296 40.64 189.984 21.6 46.272 53.696 87.136 96.256 122.72 42.56 35.52 94.112 62.144 154.592 79.84 60.48 17.696 126.496 26.56 198.08 26.56 77.76 0 144.192-9.888 199.36-29.6 55.136-19.712 102.72-46.496 142.72-80.32a422.848 422.848 0 0 0 57.024-57.44c0.16-0.192 0.16-0.384 0.288-0.608 4.384-5.888 7.04-13.056 7.04-20.832 0.064-19.712-16.608-35.744-37.12-35.744z m-322.304-183.584c-11.616 31.488-26.56 57.504-44.736 77.984-18.24 20.48-37.344 35.968-57.312 46.4-20.064 10.368-39.04 15.584-57.12 15.584-27.072 0-51.104-11.84-72.096-35.424-20.96-23.584-31.456-56.64-31.456-99.2 0-26.688 5.152-56 15.52-88 10.272-31.968 24-59.136 41.088-81.504 17.088-22.336 34.752-38.56 52.992-48.64a118.464 118.464 0 0 1 58.304-15.136c31.296 0 57.792 11.648 79.616 34.88 21.76 23.296 32.64 56.096 32.64 98.272 0 31.68-5.824 63.264-17.44 94.784z" fill="#ffffff" p-id="1581"></path></svg>