<svg t="1663664019817" class="icon" viewBox="0 0 1129 1024" version="1.1" xmlns="http://www.w3.org/2000/svg" p-id="1915" width="1rem" height="1rem"><path d="M157.988571 1024c-32.182857 0-52.662857 0-55.588571-2.925714l-102.4-8.777143L93.622857 965.485714s90.697143-46.811429 93.622857-131.657143C81.92 748.982857 20.48 623.177143 17.554286 485.668571 17.554286 219.428571 266.24 0 573.44 0s555.885714 219.428571 555.885714 485.668571c0 269.165714-248.685714 485.668571-555.885714 485.668572-32.182857 0-64.365714-2.925714-96.548571-5.851429-117.028571 49.737143-248.685714 58.514286-318.902858 58.514286zM573.44 58.514286C298.422857 58.514286 76.068571 251.611429 76.068571 485.668571c2.925714 122.88 58.514286 236.982857 157.988572 310.125715l11.702857 8.777143v11.702857c5.851429 64.365714-23.405714 114.102857-55.588571 146.285714 73.142857-2.925714 178.468571-14.628571 272.091428-58.514286l8.777143-2.925714 8.777143 2.925714c32.182857 5.851429 64.365714 8.777143 93.622857 8.777143 275.017143 0 497.371429-190.171429 497.371429-427.154286C1070.811429 251.611429 848.457143 58.514286 573.44 58.514286z" p-id="1916"></path><path d="M368.64 555.885714h234.057143c17.554286 0 29.257143 11.702857 29.257143 29.257143s-11.702857 29.257143-29.257143 29.257143h-234.057143c-17.554286 0-29.257143-11.702857-29.257143-29.257143s11.702857-29.257143 29.257143-29.257143zM368.64 380.342857h409.6c17.554286 0 29.257143 11.702857 29.257143 29.257143s-11.702857 29.257143-29.257143 29.257143H368.64c-17.554286 0-29.257143-11.702857-29.257143-29.257143s11.702857-29.257143 29.257143-29.257143z" p-id="1917"></path></svg>